<svg width="151" height="81" viewBox="0 0 151 81" fill="none" xmlns="http://www.w3.org/2000/svg">
<path d="M123.033 15.68L141.243 5.59469C141.615 5.43297 141.95 5.1954 142.225 4.89715C142.5 4.59891 142.71 4.24654 142.841 3.86256C142.973 3.47858 143.022 3.07144 142.988 2.66713C142.953 2.26282 142.834 1.87024 142.639 1.51446C142.443 1.15868 142.176 0.847526 141.854 0.600875C141.532 0.354224 141.161 0.177496 140.767 0.0819815C140.373 -0.0135331 139.963 -0.025735 139.563 0.0461552C139.164 0.118045 138.784 0.272447 138.447 0.499498L138.325 0.575371L120.232 10.5907L123.033 15.68Z" fill="#CE171E"/>
<path d="M141.868 6.98953L123.775 16.999L126.588 22.0942L144.821 12.0088C145.443 11.6077 145.889 10.9855 146.069 10.2681C146.249 9.5506 146.15 8.79144 145.792 8.14415C145.434 7.49685 144.843 7.00972 144.14 6.78129C143.436 6.55285 142.672 6.60017 142.002 6.91366L141.874 6.98953" fill="#CE171E"/>
<path d="M149.496 14.4659C149.121 13.7932 148.495 13.296 147.755 13.0828C147.015 12.8696 146.221 12.9577 145.545 13.3278L145.417 13.4037L127.324 23.4132L130.154 28.5025L148.364 18.423C149.036 18.0469 149.532 17.4206 149.744 16.6806C149.956 15.9405 149.867 15.1466 149.496 14.4718" fill="#CE171E"/>
<path d="M143.887 22.6195L143.759 22.6954L127.178 31.8644C124.445 33.3493 121.235 33.6917 118.25 32.8167C115.266 31.9418 112.749 29.9206 111.25 27.1952C109.809 24.4814 109.469 21.3164 110.302 18.3586C111.135 15.4008 113.075 12.8778 115.721 11.3143L115.902 11.2151L125.946 5.65886C126.338 5.51092 126.693 5.28046 126.988 4.98311C127.282 4.68577 127.51 4.32851 127.654 3.93558C127.798 3.54265 127.857 3.12325 127.825 2.70585C127.792 2.28845 127.671 1.88282 127.468 1.5165C127.266 1.15018 126.987 0.831741 126.65 0.582798C126.314 0.333855 125.927 0.160238 125.518 0.0737302C125.108 -0.0127772 124.685 -0.0101491 124.276 0.0814361C123.868 0.173021 123.484 0.35142 123.15 0.604521L123.022 0.674558L113.1 6.16079C109.166 8.48282 106.292 12.2465 105.087 16.653C103.882 21.0596 104.441 25.7622 106.647 29.7629C108.852 33.7636 112.53 36.7475 116.899 38.0813C121.268 39.4151 125.985 38.9939 130.049 36.907L130.452 36.6794L146.706 27.6855C147.073 27.519 147.401 27.2783 147.671 26.9787C147.94 26.6791 148.144 26.327 148.27 25.9446C148.397 25.5622 148.443 25.1577 148.405 24.7567C148.368 24.3557 148.248 23.9667 148.053 23.6144C147.857 23.262 147.591 22.9539 147.271 22.7094C146.951 22.4649 146.584 22.2893 146.193 22.1936C145.802 22.098 145.395 22.0844 144.998 22.1536C144.601 22.2229 144.223 22.3736 143.887 22.5961" fill="#CE171E"/>
<path d="M87.8985 58.5371C87.6268 58.9771 87.2484 59.3414 86.7986 59.5964C86.3487 59.8515 85.8417 59.989 85.3247 59.9962C85.0165 60.0153 84.7079 59.9674 84.42 59.8557C84.1322 59.7441 83.8719 59.5714 83.6573 59.3495C83.4426 59.1276 83.2785 58.8618 83.1765 58.5704C83.0744 58.279 83.0367 57.969 83.066 57.6616C83.066 55.0936 86.6495 54.6383 88.593 54.4341V55.1286C88.593 56.3776 88.6281 57.4223 87.8985 58.5312V58.5371ZM93.8108 52.0003C93.8108 49.8758 93.9801 47.9148 92.1766 46.4732C90.7525 45.3059 88.3888 44.874 86.5795 44.874C82.8617 44.874 78.6886 46.123 78.1692 50.4011L82.9959 50.8505C82.9959 49.0996 84.4258 48.2825 86.06 48.2825C86.4453 48.2628 86.8302 48.3272 87.188 48.4714C87.5458 48.6155 87.868 48.8358 88.132 49.1171C88.6514 49.7824 88.5814 50.6813 88.5814 51.4517V51.8719C86.4277 52.082 83.6146 52.2162 81.5777 52.9866C79.2431 53.8504 77.6147 55.6247 77.6147 58.2394C77.6147 61.5779 80.0485 63.2412 83.1769 63.2412C85.8207 63.2412 87.3499 62.2374 88.809 60.1479C88.7687 61.0711 88.8511 61.9954 89.0541 62.8969H94.126C93.8748 62.0388 93.7586 61.1468 93.7816 60.253L93.8108 52.0003Z" fill="black"/>
<path d="M0.550781 62.8847H17.5814V58.2623H6.11289V52.9745H15.1477V48.4921H6.11289V43.6596H17.5814V39.0371H0.550781V62.8847Z" fill="black"/>
<path d="M40.0691 44.8797C37.8804 44.8797 35.8318 45.8544 34.9272 47.938C33.8825 45.8544 32.4233 44.8797 30.0946 44.8797C27.7659 44.8797 26.0967 45.8544 25.192 47.938H25.1278V45.2241H20.2603V62.8851H25.3671V53.5468C25.3671 51.6325 25.2621 48.9944 27.941 48.9944C30.6199 48.9944 30.2347 51.7025 30.2347 53.5468V62.8851H35.3416V53.5468C35.3416 52.6072 35.3416 51.2123 35.6917 50.3835C35.9004 49.9675 36.2216 49.6184 36.6188 49.3759C37.0161 49.1334 37.4734 49.0073 37.9388 49.0119C39.0185 49.0119 39.8531 49.3271 40.1274 50.4418C40.2504 51.4681 40.2856 52.5029 40.2325 53.5351V62.8734H45.3452V51.8659C45.3452 50.115 45.5845 48.0781 44.4055 46.6832C43.8574 46.0916 43.1887 45.6245 42.4447 45.3134C41.7006 45.0022 40.8985 44.8544 40.0924 44.8797" fill="black"/>
<path d="M56.5802 59.6688C56.1456 59.6731 55.7176 59.5625 55.3394 59.3483C54.9613 59.1341 54.6464 58.8239 54.4265 58.449C53.9586 57.5389 53.7564 56.5155 53.8429 55.4958V52.9395C53.8429 51.066 54.1872 48.387 56.656 48.387C59.475 48.387 59.475 52.0757 59.475 54.0542C59.475 56.0328 59.475 59.6513 56.5568 59.6513L56.5802 59.6688ZM58.191 44.8794C57.2983 44.8261 56.4103 45.0426 55.6422 45.5005C54.8741 45.9585 54.2614 46.6368 53.8837 47.4474H53.7437V39.0371H48.6543V62.8847H51.4383C51.7534 61.945 51.9577 60.9353 52.6055 60.1708C53.8954 62.2952 55.1094 63.2291 57.6482 63.2291C62.9652 63.2291 64.8095 58.6767 64.8095 54.0542C64.8095 49.8812 63.2804 44.8794 58.2377 44.8794" fill="black"/>
<path d="M72.3735 48.527H72.3035V45.2236H67.5293V62.8846H72.642V56.1669C72.642 53.0386 73.1264 49.8752 77.0193 50.0854V44.9493L76.1497 44.8793C73.926 44.7042 72.8813 46.6302 72.3619 48.527" fill="black"/>
<path d="M105.349 48.7723C107.188 48.7723 108.022 50.3364 108.022 51.9356L112.89 51.6555C112.546 47.5175 109.277 44.8794 105.174 44.8794C99.6121 44.8794 96.3438 48.8073 96.3438 54.2177C96.3438 59.4296 99.5071 63.2174 104.859 63.2174C109.172 63.2174 112.476 60.6144 112.89 56.2137L108.022 55.9394C107.853 57.5736 106.949 58.9977 105.139 58.9977C102.221 58.9977 102.186 55.9394 102.186 53.7799C102.186 51.5212 102.53 48.7431 105.349 48.7431" fill="black"/>
<path d="M123.11 59.8269C120.192 59.8269 120.227 55.5137 120.227 53.5002C120.227 51.4866 120.402 48.2474 123.145 48.2474C123.672 48.1987 124.199 48.3304 124.642 48.621C125.084 48.9115 125.414 49.3437 125.579 49.8466C126.014 51.2653 126.211 52.7465 126.162 54.2297C126.162 56.3484 126.022 59.8269 123.139 59.8269H123.11ZM123.139 44.8798C117.752 44.8798 114.764 48.8777 114.764 54.0196C114.764 59.1615 117.717 63.2295 123.139 63.2295C128.351 63.2295 131.654 59.2315 131.654 54.1947C131.654 48.9828 128.666 44.8564 123.139 44.8564" fill="black"/>
<path d="M148.626 46.8288C148.111 46.1789 147.447 45.6629 146.69 45.3246C145.933 44.9862 145.106 44.8355 144.278 44.8853C141.704 44.8853 140.245 45.9592 139.206 48.2237H139.136V45.2238H134.304V62.8848H139.411V53.3947C139.34 52.3195 139.54 51.2437 139.994 50.2664C140.199 49.8714 140.508 49.5398 140.888 49.3074C141.267 49.075 141.703 48.9505 142.148 48.9474C144.716 48.9474 144.482 51.5855 144.482 53.3947V62.8848H149.589V51.9707C149.589 50.3715 149.589 48.1478 148.62 46.8229" fill="black"/>
<path d="M7.00564 32.8741C8.00204 32.8817 8.98813 32.6721 9.89528 32.2598C10.8024 31.8476 11.6089 31.2426 12.2584 30.487L10.6651 29.1037C10.2179 29.6338 9.65615 30.0553 9.02219 30.3364C8.38824 30.6175 7.69868 30.7508 7.00564 30.7263C6.38722 30.7457 5.77137 30.6382 5.19609 30.4105C4.62081 30.1827 4.0983 29.8395 3.6608 29.402C3.22329 28.9645 2.88007 28.442 2.6523 27.8667C2.42454 27.2914 2.31706 26.6756 2.3365 26.0571C2.31814 25.4374 2.42609 24.8203 2.65378 24.2436C2.88147 23.6669 3.22415 23.1425 3.66095 22.7025C4.09774 22.2624 4.61952 21.9158 5.19453 21.6838C5.76954 21.4518 6.38574 21.3392 7.00564 21.353C7.6915 21.3353 8.37269 21.4707 8.99965 21.7493C9.62661 22.028 10.1836 22.4429 10.6301 22.9638L12.2584 21.5689C11.6146 20.8077 10.8088 20.2 9.90004 19.79C8.99126 19.3801 8.00238 19.1783 7.00564 19.1993C6.08911 19.1797 5.17777 19.3419 4.32427 19.6765C3.47077 20.0111 2.69202 20.5114 2.03301 21.1487C1.37125 21.7778 0.848615 22.5386 0.498792 23.3819C0.14897 24.2253 -0.0202841 25.1327 0.0019361 26.0455C-0.0194637 26.9573 0.150189 27.8635 0.499987 28.7058C0.849784 29.5482 1.37198 30.308 2.03301 30.9364C3.36986 32.2132 5.15732 32.9098 7.00564 32.8741" fill="black"/>
<path d="M21.2175 30.0084C20.6499 30.5548 19.8926 30.86 19.1048 30.86C18.3169 30.86 17.5596 30.5548 16.992 30.0084C16.442 29.4325 16.142 28.6625 16.1574 27.8664C16.1466 27.4744 16.2149 27.0842 16.3583 26.7192C16.5017 26.3542 16.7172 26.0218 16.992 25.7419C17.5524 25.1817 18.3123 24.8669 19.1048 24.8669C19.8972 24.8669 20.6572 25.1817 21.2175 25.7419C21.499 26.018 21.7204 26.3491 21.8681 26.7147C22.0157 27.0802 22.0863 27.4723 22.0755 27.8664C22.0856 28.263 22.0147 28.6575 21.8672 29.0258C21.7197 29.3941 21.4986 29.7284 21.2175 30.0084ZM24.3284 27.8664C24.3423 27.1933 24.2143 26.5248 23.9529 25.9044C23.6914 25.2839 23.3023 24.7255 22.8109 24.2653C22.3235 23.7877 21.7457 23.4121 21.1113 23.1606C20.4769 22.909 19.7987 22.7866 19.1164 22.8004C18.4333 22.7864 17.7542 22.9088 17.1188 23.1603C16.4835 23.4119 15.9046 23.7875 15.4161 24.2653C14.9358 24.734 14.554 25.294 14.2934 25.9125C14.0327 26.5309 13.8984 27.1953 13.8984 27.8664C13.8984 28.5375 14.0327 29.2019 14.2934 29.8203C14.554 30.4388 14.9358 30.9988 15.4161 31.4675C15.9049 31.9445 16.4839 32.3192 17.1193 32.5698C17.7547 32.8203 18.4336 32.9416 19.1164 32.9266C19.7984 32.9415 20.4764 32.8201 21.1108 32.5695C21.7452 32.319 22.3232 31.9443 22.8109 31.4675C23.302 31.0071 23.691 30.4486 23.9524 29.8282C24.2138 29.2079 24.3419 28.5395 24.3284 27.8664" fill="black"/>
<path d="M29.1258 27.1426C29.1134 26.848 29.1623 26.5541 29.2694 26.2794C29.3765 26.0047 29.5394 25.7553 29.7479 25.5468C29.9563 25.3383 30.2058 25.1754 30.4805 25.0683C30.7552 24.9612 31.0491 24.9123 31.3437 24.9247C31.6231 24.9069 31.9031 24.9504 32.164 25.0522C32.4248 25.154 32.6603 25.3117 32.8538 25.5141C33.0473 25.7165 33.1942 25.9588 33.2842 26.224C33.3742 26.4891 33.4051 26.7708 33.3747 27.0492V32.6463H35.6509V26.7282C35.6509 24.3586 34.3027 22.8995 32.0265 22.8995C31.4434 22.8579 30.8603 22.9815 30.3441 23.2561C29.828 23.5306 29.3997 23.9451 29.1083 24.452V23.0863H26.8496V32.6463H29.1258V27.1426Z" fill="black"/>
<path d="M43.0802 27.0143C42.7008 26.88 42.1697 26.6874 41.9129 26.6116C41.647 26.5161 41.3876 26.403 41.1367 26.273C41.0088 26.2142 40.9 26.1206 40.8226 26.003C40.7453 25.8854 40.7024 25.7484 40.6989 25.6077C40.6989 25.0941 41.1542 24.7556 41.8662 24.7556C42.2168 24.7323 42.5679 24.7927 42.8906 24.9317C43.2133 25.0707 43.4983 25.2844 43.7222 25.5552L44.942 24.207C44.5769 23.7417 44.1053 23.371 43.567 23.1263C43.0286 22.8815 42.4393 22.7697 41.8487 22.8004C40.9798 22.7799 40.1297 23.0557 39.4383 23.5825C39.1314 23.8323 38.8883 24.1516 38.729 24.5138C38.5697 24.8761 38.4987 25.271 38.522 25.6661C38.522 27.0318 39.3332 27.808 40.8565 28.3566C41.1775 28.4909 41.7437 28.6601 42.0238 28.7594C42.332 28.8496 42.631 28.9688 42.9168 29.1154C43.0684 29.1803 43.1995 29.2852 43.2961 29.4188C43.3927 29.5525 43.4512 29.7098 43.4654 29.8741C43.4654 30.4578 42.9518 30.9188 41.7612 30.9188C41.274 30.9427 40.7885 30.8459 40.3477 30.6372C39.9069 30.4285 39.5243 30.1143 39.234 29.7224L37.7749 30.9539C38.3585 32.1503 39.806 32.8915 41.7203 32.8915C44.3175 32.8915 45.6482 31.6192 45.6482 29.8566C45.6482 28.4909 44.8486 27.6388 43.086 27.0143" fill="black"/>
<path d="M62.7611 24.5108V23.0867H60.5024V32.6467H62.7611V27.6216C62.735 27.2744 62.7849 26.9257 62.9075 26.5998C63.03 26.2739 63.2222 25.9786 63.4706 25.7347C63.719 25.4907 64.0177 25.3039 64.3457 25.1873C64.6738 25.0706 65.0233 25.027 65.37 25.0594C65.6874 25.0615 66.0039 25.0928 66.3155 25.1528V22.9524C66.0804 22.9125 65.8419 22.8949 65.6035 22.8999C65.0238 22.859 64.4449 22.99 63.9393 23.2765C63.4337 23.563 63.0238 23.9924 62.7611 24.5108" fill="black"/>
<path d="M72.998 32.9093C73.7178 32.926 74.4328 32.7877 75.0944 32.5037C75.756 32.2197 76.3488 31.7967 76.8325 31.2634L75.4259 29.7985C75.1193 30.1359 74.744 30.4037 74.3252 30.5839C73.9064 30.7641 73.4538 30.8525 72.998 30.8432C72.6081 30.8522 72.2206 30.7813 71.8592 30.6347C71.4978 30.4882 71.1703 30.2691 70.8969 29.9911C70.3596 29.4072 70.0614 28.6426 70.0614 27.8491C70.0614 27.0556 70.3596 26.2911 70.8969 25.7071C71.1692 25.4272 71.4963 25.2065 71.8579 25.0589C72.2194 24.9112 72.6076 24.8399 72.998 24.8492C73.4537 24.841 73.9059 24.9299 74.3245 25.1101C74.7431 25.2902 75.1186 25.5574 75.4259 25.8939L76.8325 24.4348C76.3498 23.8998 75.7574 23.4753 75.0956 23.1903C74.4338 22.9052 73.7184 22.7663 72.998 22.7831C72.3162 22.7695 71.6386 22.8915 71.0044 23.142C70.3702 23.3924 69.792 23.7664 69.3035 24.2422C68.8281 24.7161 68.4509 25.2791 68.1936 25.8991C67.9362 26.519 67.8037 27.1837 67.8037 27.8549C67.8037 28.5262 67.9362 29.1908 68.1936 29.8108C68.4509 30.4307 68.8281 30.9938 69.3035 31.4677C69.7921 31.9422 70.3707 32.3142 71.0051 32.5617C71.6396 32.8093 72.3172 32.9275 72.998 32.9093" fill="black"/>
<path d="M80.2994 19.2749C80.0327 19.2749 79.7721 19.354 79.5504 19.5021C79.3286 19.6503 79.1558 19.8608 79.0538 20.1072C78.9518 20.3535 78.9251 20.6246 78.9771 20.8861C79.0291 21.1477 79.1575 21.3879 79.3461 21.5764C79.5346 21.765 79.7748 21.8934 80.0364 21.9454C80.2979 21.9974 80.569 21.9707 80.8153 21.8687C81.0617 21.7667 81.2722 21.5939 81.4204 21.3721C81.5685 21.1504 81.6476 20.8898 81.6476 20.6231C81.6476 20.2655 81.5055 19.9226 81.2527 19.6698C80.9999 19.4169 80.657 19.2749 80.2994 19.2749" fill="black"/>
<path d="M81.4373 23.0864H79.1611V32.6465H81.4373V23.0864Z" fill="black"/>
<path d="M91.2952 30.0085C90.7275 30.5548 89.9703 30.8601 89.1824 30.8601C88.3945 30.8601 87.6373 30.5548 87.0696 30.0085C86.5197 29.4326 86.2197 28.6626 86.235 27.8665C86.2242 27.4745 86.2926 27.0843 86.436 26.7193C86.5794 26.3543 86.7949 26.0219 87.0696 25.742C87.6315 25.1846 88.3909 24.8718 89.1824 24.8718C89.9739 24.8718 90.7333 25.1846 91.2952 25.742C91.5759 26.0184 91.7964 26.3497 91.9431 26.7153C92.0897 27.0809 92.1592 27.4728 92.1473 27.8665C92.1582 28.2627 92.0882 28.6569 91.9417 29.0252C91.7952 29.3934 91.5752 29.728 91.2952 30.0085V30.0085ZM89.1941 22.8005C88.5108 22.7859 87.8315 22.908 87.1961 23.1595C86.5607 23.4111 85.9819 23.7871 85.4938 24.2654C85.0134 24.7341 84.6317 25.2941 84.371 25.9126C84.1104 26.531 83.9761 27.1954 83.9761 27.8665C83.9761 28.5376 84.1104 29.202 84.371 29.8204C84.6317 30.4389 85.0134 30.9989 85.4938 31.4676C86.4969 32.4047 87.8184 32.9259 89.1912 32.9259C90.5639 32.9259 91.8854 32.4047 92.8885 31.4676C93.3689 30.9989 93.7507 30.4389 94.0113 29.8204C94.2719 29.202 94.4062 28.5376 94.4062 27.8665C94.4062 27.1954 94.2719 26.531 94.0113 25.9126C93.7507 25.2941 93.3689 24.7341 92.8885 24.2654C92.4011 23.7878 91.8233 23.4122 91.1889 23.1607C90.5545 22.9091 89.8764 22.7867 89.1941 22.8005" fill="black"/>
<path d="M55.4071 19.4268H52.8274L52.0337 21.6855H53.8955L55.4071 19.4268Z" fill="black"/>
<path d="M50.6273 25.7422C51.1892 25.1848 51.9486 24.872 52.7401 24.872C53.5315 24.872 54.291 25.1848 54.8528 25.7422C55.1343 26.0183 55.3557 26.3494 55.5034 26.715C55.651 27.0805 55.7216 27.4726 55.7108 27.8667C55.7224 28.2624 55.6534 28.6564 55.5079 29.0247C55.3624 29.3929 55.1435 29.7277 54.8645 30.0086C54.2969 30.555 53.5396 30.8603 52.7517 30.8603C51.9638 30.8603 51.2066 30.555 50.6389 30.0086C50.089 29.4327 49.789 28.6628 49.8043 27.8667C49.7936 27.4747 49.8619 27.0845 50.0053 26.7195C50.1487 26.3544 50.3642 26.0221 50.6389 25.7422H50.6273ZM52.7634 32.9269C53.4453 32.9418 54.1234 32.8204 54.7578 32.5698C55.3922 32.3193 55.9702 31.9446 56.4579 31.4677C56.9382 30.9991 57.32 30.439 57.5806 29.8206C57.8413 29.2021 57.9756 28.5378 57.9756 27.8667C57.9756 27.1955 57.8413 26.5312 57.5806 25.9128C57.32 25.2943 56.9382 24.7343 56.4579 24.2656C55.4567 23.3246 54.1344 22.8008 52.7605 22.8008C51.3865 22.8008 50.0643 23.3246 49.0631 24.2656C48.5827 24.7343 48.201 25.2943 47.9403 25.9128C47.6797 26.5312 47.5454 27.1955 47.5454 27.8667C47.5454 28.5378 47.6797 29.2021 47.9403 29.8206C48.201 30.439 48.5827 30.9991 49.0631 31.4677C49.5519 31.9448 50.1309 32.3195 50.7663 32.57C51.4016 32.8206 52.0806 32.9419 52.7634 32.9269" fill="black"/>
<path d="M3.4439 76.8368C3.35413 76.8859 3.25431 76.9138 3.15208 76.9185H2.07235V75.652H3.14625C3.25011 75.653 3.3522 75.6791 3.4439 75.7278C3.60732 75.792 3.70654 75.9963 3.70654 76.3115C3.71743 76.4182 3.69868 76.5259 3.65234 76.6227C3.60601 76.7195 3.53389 76.8016 3.4439 76.8601V76.8368ZM3.21628 74.2337H0.479004V80.0701H2.07235V78.3776H3.23963C3.76834 78.3737 4.27483 78.1644 4.65204 77.7939C4.85537 77.6015 5.01444 77.3672 5.11823 77.1072C5.22203 76.8472 5.26808 76.5677 5.25319 76.2881C5.26413 75.9892 5.20734 75.6917 5.08707 75.4178C4.96679 75.1439 4.78616 74.9007 4.55866 74.7065C4.18371 74.3858 3.70954 74.2044 3.21628 74.1929" fill="#6D6E71"/>
<path d="M10.0499 78.2775C9.86386 78.4584 9.63626 78.591 9.38707 78.6635C9.13789 78.7361 8.87471 78.7465 8.62059 78.6937C8.36647 78.641 8.12916 78.5267 7.92944 78.361C7.72972 78.1952 7.57368 77.983 7.47499 77.743C7.3763 77.503 7.33797 77.2424 7.36335 76.9841C7.38874 76.7258 7.47706 76.4777 7.62059 76.2614C7.76412 76.0452 7.95848 75.8674 8.18664 75.7437C8.4148 75.62 8.66982 75.5542 8.92934 75.5519C9.13927 75.5485 9.34756 75.5893 9.54065 75.6718C9.73373 75.7542 9.90726 75.8765 10.0499 76.0305C10.2025 76.1743 10.3238 76.348 10.4062 76.5408C10.4885 76.7337 10.5302 76.9414 10.5285 77.1511C10.5296 77.3615 10.4877 77.57 10.4054 77.7636C10.3231 77.9573 10.2021 78.1322 10.0499 78.2775V78.2775ZM8.92934 74.122C8.50926 74.1121 8.09137 74.1854 7.69972 74.3376C7.30808 74.4899 6.95041 74.7181 6.64731 75.0091C6.35389 75.2822 6.11988 75.6128 5.95987 75.9803C5.79986 76.3479 5.71729 76.7444 5.71729 77.1452C5.71729 77.5461 5.79986 77.9426 5.95987 78.3101C6.11988 78.6777 6.35389 79.0083 6.64731 79.2814C7.2615 79.8654 8.08205 80.1823 8.92934 80.1627C9.77664 80.1823 10.5972 79.8654 11.2114 79.2814C11.5104 79.0119 11.7493 78.6824 11.9122 78.3142C12.0751 77.9461 12.1585 77.5478 12.1569 77.1452C12.1611 76.7423 12.0789 76.3431 11.9158 75.9746C11.7527 75.6061 11.5125 75.2769 11.2114 75.0091C10.9083 74.7181 10.5506 74.4899 10.159 74.3376C9.76732 74.1854 9.34943 74.1121 8.92934 74.122" fill="#6D6E71"/>
<path d="M15.3677 76.959H14.4805V75.6516H15.5019C15.5816 75.6515 15.6605 75.6676 15.7337 75.6991C15.8069 75.7306 15.8728 75.7768 15.9275 75.8347C15.9822 75.8927 16.0244 75.9612 16.0516 76.0361C16.0788 76.1111 16.0903 76.1907 16.0856 76.2703C16.0946 76.363 16.083 76.4565 16.0516 76.5442C16.0202 76.6319 15.9698 76.7115 15.9039 76.7773C15.8381 76.8432 15.7585 76.8936 15.6708 76.925C15.5831 76.9564 15.4896 76.968 15.3969 76.959H15.3677ZM17.6672 76.2236C17.676 75.9585 17.6285 75.6945 17.5279 75.449C17.4273 75.2036 17.2759 74.9822 17.0836 74.7995C16.8865 74.6085 16.6535 74.4585 16.398 74.3583C16.1425 74.2582 15.8697 74.2097 15.5953 74.2158H12.8872V80.0523H14.4805V78.208H15.0642L16.2315 80.0289H18.0933L16.64 77.8694C16.9474 77.7148 17.2042 77.4755 17.38 77.1798C17.5558 76.884 17.6433 76.5441 17.6322 76.2002" fill="#6D6E71"/>
<path d="M22.8612 77.8049L22.2192 77.087L21.1687 77.9916L21.7932 78.6803C21.6661 78.703 21.537 78.7128 21.408 78.7095C21.1998 78.7127 20.9931 78.6747 20.7998 78.5975C20.6065 78.5204 20.4303 78.4057 20.2815 78.2601C20.06 78.0378 19.9093 77.7547 19.8485 77.4467C19.7878 77.1388 19.8197 76.8197 19.9403 76.5298C20.0608 76.24 20.2646 75.9924 20.5258 75.8184C20.7871 75.6443 21.0941 75.5516 21.408 75.552C21.8257 75.5595 22.2243 75.7283 22.5202 76.0232C22.8162 76.318 22.9865 76.716 22.9955 77.1337C23.0055 77.365 22.9594 77.5952 22.8612 77.8049V77.8049ZM23.6842 75.0034C23.06 74.4399 22.2489 74.1279 21.408 74.1279C20.567 74.1279 19.756 74.4399 19.1318 75.0034C18.8402 75.2764 18.6078 75.6063 18.4489 75.9727C18.29 76.3391 18.208 76.7343 18.208 77.1337C18.208 77.5331 18.29 77.9282 18.4489 78.2947C18.6078 78.6611 18.8402 78.991 19.1318 79.264C19.7487 79.8385 20.5651 80.1504 21.408 80.1336C21.9018 80.1389 22.3904 80.0332 22.8379 79.8243L23.3515 80.4079L24.3962 79.4974L23.9176 78.9605C24.3761 78.4701 24.6289 77.8225 24.6238 77.1512C24.6287 76.7496 24.5474 76.3515 24.3853 75.984C24.2232 75.6165 23.9841 75.2881 23.6842 75.0209" fill="#6D6E71"/>
<path d="M28.9427 77.3675C28.9427 78.3363 28.575 78.6923 27.9096 78.6923C27.2443 78.6923 26.8824 78.3363 26.8824 77.3675V74.21H25.2891V77.5367C25.2654 77.8946 25.3199 78.2533 25.449 78.5879C25.578 78.9226 25.7784 79.2251 26.0361 79.4744C26.5685 79.9011 27.2303 80.1337 27.9126 80.1337C28.5948 80.1337 29.2567 79.9011 29.789 79.4744C30.0468 79.2251 30.2471 78.9226 30.3761 78.5879C30.5052 78.2533 30.5597 77.8946 30.536 77.5367V74.21H28.9427V77.3675Z" fill="#6D6E71"/>
<path d="M33.0225 77.7527H35.5497V76.4453H33.0225V75.6457H35.7365V74.21H31.4292V80.0522H35.8007V78.6456H33.0225V77.7527Z" fill="#6D6E71"/>
<path d="M42.0804 76.5973C41.7443 76.4745 41.4013 76.3712 41.0532 76.288C40.9529 76.2646 40.8551 76.2314 40.7614 76.1888C40.6879 76.1697 40.6236 76.1253 40.5798 76.0633C40.536 76.0013 40.5155 75.9259 40.5221 75.8503C40.5221 75.646 40.7497 75.4942 41.1583 75.4942C41.358 75.4844 41.5573 75.5208 41.7406 75.6008C41.9238 75.6808 42.0861 75.8021 42.2147 75.9553L43.2652 75.0565C43.0054 74.7388 42.6732 74.4882 42.2964 74.3257C41.9196 74.1632 41.5092 74.0936 41.0999 74.1227C40.5676 74.1027 40.0445 74.2654 39.6174 74.5837C39.423 74.7354 39.2683 74.9321 39.1667 75.1568C39.065 75.3814 39.0194 75.6274 39.0338 75.8736C39.0393 76.2648 39.1756 76.6428 39.421 76.9475C39.6664 77.2522 40.0068 77.4659 40.3879 77.5545C40.6622 77.6595 41.0824 77.7821 41.31 77.8521L41.6485 77.9689C41.8761 78.0623 41.9754 78.1673 41.9754 78.3307C41.9754 78.605 41.7186 78.7509 41.1991 78.7509C40.908 78.7618 40.6185 78.7023 40.3553 78.5773C40.0921 78.4523 39.863 78.2656 39.6875 78.0331L38.5669 78.8969C38.8132 79.2631 39.1433 79.5652 39.5299 79.7782C40.0293 80.0336 40.5861 80.1562 41.1466 80.1342C42.6991 80.1342 43.4812 79.4163 43.4812 78.284C43.4812 77.4903 43.0726 76.9592 42.0629 76.5973" fill="#6D6E71"/>
<path d="M48.2325 78.2775C48.0102 78.4991 47.7271 78.6498 47.4191 78.7105C47.1112 78.7713 46.7921 78.7394 46.5023 78.6188C46.2124 78.4982 45.9648 78.2945 45.7908 78.0332C45.6167 77.772 45.524 77.465 45.5244 77.1511C45.5213 76.9417 45.5618 76.734 45.6431 76.5411C45.7245 76.3482 45.8451 76.1744 45.9972 76.0305C46.1399 75.8765 46.3134 75.7542 46.5065 75.6718C46.6996 75.5893 46.9079 75.5485 47.1178 75.5519C47.3285 75.5491 47.5374 75.5902 47.7314 75.6726C47.9253 75.755 48.1 75.8769 48.2442 76.0305C48.3949 76.1754 48.5146 76.3495 48.5958 76.5422C48.6771 76.7348 48.7183 76.942 48.717 77.1511C48.7178 77.3609 48.6763 77.5688 48.5951 77.7624C48.5139 77.9559 48.3945 78.1311 48.2442 78.2775H48.2325ZM47.1061 74.122C46.686 74.1121 46.2681 74.1854 45.8765 74.3376C45.4848 74.4899 45.1272 74.7181 44.8241 75.0091C44.5307 75.2822 44.2966 75.6128 44.1366 75.9803C43.9766 76.3479 43.894 76.7444 43.894 77.1452C43.894 77.5461 43.9766 77.9426 44.1366 78.3101C44.2966 78.6777 44.5307 79.0083 44.8241 79.2814C45.449 79.8482 46.2624 80.1621 47.1061 80.1621C47.9498 80.1621 48.7632 79.8482 49.3881 79.2814C49.6872 79.0119 49.926 78.6824 50.0889 78.3142C50.2519 77.9461 50.3353 77.5478 50.3336 77.1452C50.3379 76.7423 50.2557 76.3431 50.0926 75.9746C49.9295 75.6061 49.6893 75.2769 49.3881 75.0091C49.085 74.7181 48.7274 74.4899 48.3357 74.3376C47.9441 74.1854 47.5262 74.1121 47.1061 74.122" fill="#6D6E71"/>
<path d="M54.9384 77.3441L52.4871 74.21H51.063V80.0522H52.5921V76.7897L55.166 80.0522H56.4617V74.21H54.9384V77.3441Z" fill="#6D6E71"/>
<path d="M61.2126 76.241H59.0123V74.21H57.4189V80.0522H59.0123V77.6943H61.2126V80.0522H62.8001V74.21H61.2126V76.241Z" fill="#6D6E71"/>
<path d="M65.7357 78.0562L66.442 76.2469L67.1482 78.0562H65.7357ZM65.7357 74.21L63.3545 80.0464H65.0295L65.3447 79.2818H67.5859L67.8894 80.0464H69.5761L67.1949 74.21H65.7357Z" fill="#6D6E71"/>
<path d="M72.5642 76.9586H71.6771V75.6512H72.6984C72.7781 75.6511 72.857 75.6672 72.9302 75.6987C73.0034 75.7302 73.0693 75.7764 73.124 75.8343C73.1787 75.8923 73.2209 75.9608 73.2481 76.0358C73.2753 76.1107 73.2869 76.1903 73.2821 76.2699C73.2911 76.3626 73.2796 76.4561 73.2482 76.5438C73.2168 76.6315 73.1663 76.7111 73.1005 76.7769C73.0346 76.8428 72.955 76.8932 72.8673 76.9246C72.7796 76.956 72.6861 76.9676 72.5934 76.9586H72.5642ZM74.8638 76.2232C74.8732 75.958 74.8261 75.6938 74.7254 75.4482C74.6248 75.2027 74.473 74.9814 74.2801 74.7991C74.0845 74.6077 73.8526 74.4575 73.5979 74.3573C73.3433 74.257 73.0712 74.2088 72.7977 74.2154H70.1421V80.0519H71.7354V78.2076H72.3191L73.4864 80.0285H75.2898L73.8307 77.869C74.1396 77.7158 74.398 77.477 74.5749 77.1811C74.7519 76.8851 74.84 76.5445 74.8287 76.1998" fill="#6D6E71"/>
<path d="M82.1708 77.3441L79.7254 74.21H78.3013V80.0522H79.8246V76.7897L82.3984 80.0522H83.7V74.21H82.1708V77.3441Z" fill="#6D6E71"/>
<path d="M86.6355 78.0562L87.3359 76.2469L88.0421 78.0562H86.6355ZM86.6064 74.21L84.2251 80.0464H85.906L86.2153 79.2818H88.4623L88.76 80.0464H90.4642L88.083 74.21H86.6064Z" fill="#6D6E71"/>
<path d="M86.6244 73.5387C86.8437 73.5604 87.0573 73.6217 87.2547 73.7196C87.4934 73.8355 87.754 73.8992 88.0193 73.9064C88.7371 73.9064 89.1574 73.4687 89.2741 72.6049L88.4512 72.4706C88.3928 72.7099 88.2702 72.8267 88.0835 72.8267C87.8634 72.8048 87.6496 72.7414 87.4531 72.6399C87.2216 72.5272 86.9692 72.4636 86.7119 72.4531C86.3841 72.4591 86.0713 72.592 85.8395 72.8239C85.6076 73.0557 85.4747 73.3684 85.4688 73.6963L86.2917 73.8305C86.2931 73.7891 86.303 73.7484 86.3207 73.7109C86.3385 73.6734 86.3637 73.64 86.3949 73.6126C86.426 73.5853 86.4625 73.5646 86.502 73.5519C86.5414 73.5392 86.5831 73.5347 86.6244 73.5387" fill="#6D6E71"/>
<path d="M94.714 78.2775C94.5279 78.4584 94.3003 78.591 94.0511 78.6635C93.802 78.7361 93.5388 78.7465 93.2846 78.6937C93.0305 78.641 92.7932 78.5267 92.5935 78.361C92.3938 78.1952 92.2377 77.983 92.1391 77.743C92.0404 77.503 92.002 77.2424 92.0274 76.9841C92.0528 76.7258 92.1411 76.4777 92.2846 76.2614C92.4282 76.0452 92.6225 75.8674 92.8507 75.7437C93.0789 75.62 93.3339 75.5542 93.5934 75.5519C93.8033 75.5485 94.0116 75.5893 94.2047 75.6718C94.3978 75.7542 94.5713 75.8765 94.714 76.0305C94.8666 76.1743 94.9879 76.348 95.0702 76.5408C95.1526 76.7337 95.1942 76.9414 95.1926 77.1511C95.1936 77.3615 95.1517 77.57 95.0695 77.7636C94.9872 77.9573 94.8662 78.1322 94.714 78.2775V78.2775ZM93.5934 74.122C93.1733 74.1121 92.7554 74.1854 92.3638 74.3376C91.9721 74.4899 91.6145 74.7181 91.3114 75.0091C91.018 75.2822 90.7839 75.6128 90.6239 75.9803C90.4639 76.3479 90.3813 76.7444 90.3813 77.1452C90.3813 77.5461 90.4639 77.9426 90.6239 78.3101C90.7839 78.6777 91.018 79.0083 91.3114 79.2814C91.9363 79.8482 92.7497 80.1621 93.5934 80.1621C94.4371 80.1621 95.2505 79.8482 95.8754 79.2814C96.1745 79.0119 96.4133 78.6824 96.5762 78.3142C96.7392 77.9461 96.8226 77.5478 96.8209 77.1452C96.8252 76.7423 96.743 76.3431 96.5799 75.9746C96.4168 75.6061 96.1766 75.2769 95.8754 75.0091C95.5723 74.7181 95.2147 74.4899 94.823 74.3376C94.4314 74.1854 94.0135 74.1121 93.5934 74.122" fill="#6D6E71"/>
<path d="M98.793 75.6516H100.369V80.0522H101.962V75.6516H103.503V74.21H98.793V75.6516Z" fill="#6D6E71"/>
<path d="M105.616 77.7527H108.149V76.4453H105.616V75.6457H108.336V74.21H104.022V80.0522H108.4V78.6456H105.616V77.7527Z" fill="#6D6E71"/>
<path d="M112.416 76.8655L110.525 74.21H109.217V80.0522H110.688V76.9589L112.416 79.346L114.143 76.9589V80.0522H115.62V74.21H114.312L112.416 76.8655Z" fill="#6D6E71"/>
<path d="M120.686 74.21H119.092V80.0522H122.909V78.6106H120.686V74.21Z" fill="#6D6E71"/>
<path d="M125.179 74.21H123.586V80.0522H125.179V74.21Z" fill="#6D6E71"/>
<path d="M129.37 76.8655L127.479 74.21H126.172V80.0522H127.643V76.9589L129.37 79.346L131.098 76.9589V80.0522H132.574V74.21H131.267L129.37 76.8655Z" fill="#6D6E71"/>
<path d="M135.16 74.21H133.566V80.0522H135.16V74.21Z" fill="#6D6E71"/>
<path d="M135.714 75.6516H137.284V80.0522H138.878V75.6516H140.424V74.21H135.714V75.6516Z" fill="#6D6E71"/>
<path d="M142.537 77.7527H145.07V76.4453H142.537V75.6457H145.251V74.21H140.944V80.0522H145.321V78.6456H142.537V77.7527Z" fill="#6D6E71"/>
<path d="M149.167 76.5971C148.831 76.4743 148.488 76.371 148.14 76.2878C148.038 76.2644 147.938 76.2312 147.843 76.1886C147.77 76.1684 147.707 76.1235 147.664 76.0616C147.622 75.9997 147.602 75.9249 147.609 75.8501C147.609 75.6458 147.837 75.494 148.245 75.494C148.445 75.4846 148.644 75.5213 148.827 75.6012C149.01 75.6812 149.173 75.8023 149.302 75.9551L150.352 75.0563C150.092 74.739 149.76 74.4886 149.383 74.3262C149.006 74.1637 148.596 74.0938 148.187 74.1225C147.655 74.1025 147.132 74.2652 146.704 74.5836C146.505 74.7321 146.344 74.9274 146.238 75.1522C146.131 75.3771 146.081 75.6247 146.092 75.8734C146.097 76.2638 146.232 76.6412 146.477 76.9458C146.721 77.2503 147.06 77.4645 147.44 77.5543C147.72 77.6593 148.14 77.7819 148.362 77.8519L148.706 77.9687C148.934 78.0621 149.033 78.1671 149.033 78.3305C149.033 78.6048 148.776 78.7507 148.257 78.7507C147.974 78.7526 147.695 78.6881 147.441 78.5624C147.188 78.4367 146.968 78.2533 146.798 78.027L145.671 78.8908C145.921 79.2544 146.25 79.5558 146.634 79.7721C147.136 80.0271 147.695 80.1496 148.257 80.1281C149.804 80.1281 150.591 79.4103 150.591 78.278C150.591 77.4842 150.183 76.9531 149.173 76.5913" fill="#6D6E71"/>
</svg>
